<svg width="750" height="250" viewBox="0 0 750 250" fill="none" xmlns="http://www.w3.org/2000/svg">
<g clip-path="url(#clip0_3153_118)">
<rect width="750" height="250" fill="white"/>
<g opacity="0.5">
<path d="M405.536 102.679C411.579 97.6339 420.761 99.675 424.097 106.805L428.806 116.87C430.148 119.739 432.57 121.961 435.543 123.051L445.976 126.877C453.367 129.587 456.19 138.56 451.683 145.014L445.321 154.124C443.508 156.721 442.795 159.93 443.337 163.05L445.24 173.998C446.589 181.754 440.23 188.685 432.387 188.009L421.316 187.055C418.16 186.783 415.025 187.769 412.594 189.799L404.064 196.921C398.022 201.967 388.84 199.926 385.504 192.795L380.795 182.73C379.453 179.862 377.031 177.64 374.057 176.549L363.624 172.724C356.234 170.013 353.41 161.041 357.917 154.587L364.279 145.476C366.093 142.879 366.806 139.671 366.263 136.551L364.36 125.603C363.012 117.847 369.371 110.916 377.214 111.592L388.285 112.546C391.44 112.818 394.575 111.832 397.006 109.802L405.536 102.679Z" fill="#9F5E1C"/>
<path d="M403.651 119.126C408.597 113.615 417.667 115.631 419.813 122.718L419.995 123.32C421.529 128.387 425.702 132.215 430.882 133.307L431.497 133.437C438.743 134.965 441.532 143.828 436.467 149.23L436.036 149.689C432.416 153.551 431.187 159.079 432.831 164.11L433.026 164.708C435.326 171.747 429.045 178.595 421.833 176.909L421.222 176.766C416.067 175.561 410.665 177.26 407.129 181.2L406.709 181.668C401.763 187.179 392.692 185.163 390.547 178.075L390.364 177.474C388.831 172.407 384.657 168.579 379.477 167.487L378.863 167.357C371.617 165.829 368.828 156.965 373.893 151.563L374.323 151.105C377.944 147.243 379.173 141.715 377.529 136.683L377.334 136.086C375.034 129.046 381.315 122.199 388.526 123.885L389.138 124.028C394.293 125.233 399.695 123.533 403.231 119.594L403.651 119.126Z" fill="#9F5E1C" stroke="#FBDFAF" stroke-width="5"/>
<circle cx="404.8" cy="149.8" r="11.5" transform="rotate(12.5326 404.8 149.8)" fill="#FBDFAF"/>
</g>
<g opacity="0.5">
<path d="M722.536 9.67936C728.579 4.63394 737.761 6.67502 741.097 13.8052L745.806 23.8702C747.148 26.739 749.57 28.9608 752.543 30.0513L762.976 33.8771C770.367 36.5873 773.19 45.5597 768.683 52.0138L762.321 61.1245C760.508 63.7213 759.795 66.9296 760.337 70.05L762.24 80.998C763.589 88.7537 757.23 95.685 749.387 95.0089L738.316 94.0546C735.16 93.7826 732.025 94.7691 729.594 96.7991L721.064 103.921C715.022 108.967 705.84 106.926 702.504 99.7955L697.795 89.7304C696.453 86.8616 694.031 84.6398 691.057 83.5494L680.624 79.7236C673.234 77.0133 670.41 68.041 674.917 61.5869L681.279 52.4761C683.093 49.8794 683.806 46.671 683.263 43.5506L681.36 32.6026C680.012 24.847 686.371 17.9157 694.214 18.5917L705.285 19.5461C708.44 19.8181 711.575 18.8315 714.006 16.8015L722.536 9.67936Z" fill="#9F5E1C"/>
<path d="M720.651 26.1257C725.597 20.6145 734.667 22.6307 736.813 29.7184L736.995 30.3201C738.529 35.387 742.702 39.2152 747.882 40.3073L748.497 40.4369C755.743 41.9649 758.532 50.8283 753.467 56.2304L753.036 56.6891C749.416 60.5506 748.187 66.0786 749.831 71.1105L750.026 71.7081C752.326 78.7475 746.045 85.5947 738.833 83.909L738.222 83.766C733.067 82.5608 727.665 84.2604 724.129 88.2003L723.709 88.6682C718.763 94.1793 709.692 92.1631 707.547 85.0754L707.364 84.4737C705.831 79.4069 701.657 75.5786 696.477 74.4865L695.863 74.357C688.617 72.8289 685.828 63.9655 690.893 58.5634L691.323 58.1048C694.944 54.2432 696.173 48.7152 694.529 43.6833L694.334 43.0857C692.034 36.0464 698.315 29.1991 705.526 30.8849L706.138 31.0278C711.293 32.2331 716.695 30.5334 720.231 26.5935L720.651 26.1257Z" fill="#9F5E1C" stroke="#FBDFAF" stroke-width="5"/>
<circle cx="721.8" cy="56.8003" r="11.5" transform="rotate(12.5326 721.8 56.8003)" fill="#FBDFAF"/>
</g>
<rect x="-15" y="189" width="768.484" height="210.269" fill="#8D9D52"/>
<path d="M29.7214 319.503L42.574 327.928L29.7214 336.354L22.9373 346.701L29.7214 357.051L42.574 365.476L29.7214 373.901L22.9373 384.25L29.7214 394.599L42.574 403.024L29.7214 411.449L21.2966 424.302L12.8708 411.449L0.0192871 403.024L12.8708 394.599L19.655 384.25L12.8708 373.901L0.0192871 365.476L12.8708 357.051L19.655 346.701L12.8708 336.354L0.0192871 327.928L12.8708 319.503L21.2966 306.65L29.7214 319.503ZM72.2761 319.503L85.1287 327.928L72.2761 336.354L65.4919 346.701L72.2761 357.051L85.1287 365.476L72.2761 373.901L65.4919 384.25L72.2761 394.599L85.1287 403.024L72.2761 411.449L63.8513 424.302L55.4255 411.449L42.574 403.024L55.4255 394.599L62.2097 384.25L55.4255 373.901L42.574 365.476L55.4255 357.051L62.2097 346.701L55.4255 336.354L42.574 327.928L55.4255 319.503L63.8513 306.65L72.2761 319.503ZM157.385 319.503L170.237 327.928L157.385 336.354L150.6 346.701L157.385 357.051L170.237 365.476L157.385 373.901L150.6 384.25L157.385 394.599L170.237 403.024L157.385 411.449L148.96 424.302L140.534 411.449L127.682 403.024L114.831 411.449L106.406 424.302L97.9802 411.449L85.1287 403.024L97.9802 394.599L104.764 384.25L97.9802 373.901L85.1287 365.476L97.9802 357.051L104.764 346.701L97.9802 336.354L85.1287 327.928L97.9802 319.503L106.406 306.65L114.831 319.503L127.682 327.927L140.534 319.503L148.96 306.65L157.385 319.503ZM199.939 319.503L212.792 327.928L199.939 336.354L193.155 346.701L199.939 357.051L212.792 365.476L199.939 373.901L193.155 384.25L199.939 394.599L212.792 403.024L199.939 411.449L191.514 424.302L183.089 411.449L170.237 403.024L183.089 394.599L189.873 384.25L183.089 373.901L170.237 365.476L183.089 357.051L189.873 346.701L183.089 336.354L170.237 327.928L183.089 319.503L191.514 306.65L199.939 319.503ZM242.494 319.503L255.346 327.928L242.494 336.354L235.71 346.701L242.494 357.051L255.346 365.476L242.494 373.901L235.71 384.25L242.494 394.599L255.346 403.024L242.494 411.449L234.069 424.302L225.643 411.449L212.792 403.024L225.643 394.599L232.427 384.25L225.643 373.901L212.792 365.476L225.643 357.051L232.427 346.701L225.643 336.354L212.792 327.928L225.643 319.503L234.069 306.65L242.494 319.503ZM285.049 319.503L297.901 327.928L285.049 336.354L278.264 346.701L285.049 357.051L297.901 365.476L285.049 373.901L278.264 384.25L285.049 394.599L297.901 403.024L285.049 411.449L276.624 424.302L268.198 411.449L255.346 403.024L268.198 394.599L274.982 384.25L268.198 373.901L255.346 365.476L268.198 357.051L274.982 346.701L268.198 336.354L255.346 327.928L268.198 319.503L276.624 306.65L285.049 319.503ZM370.158 319.503L383.01 327.928L370.158 336.354L363.373 346.701L370.158 357.051L383.01 365.476L370.158 373.901L363.373 384.25L370.158 394.599L383.01 403.024L370.158 411.449L361.732 424.302L353.306 411.449L340.455 403.024L327.603 411.449L319.178 424.302L310.753 411.449L297.901 403.024L310.753 394.599L317.537 384.25L310.753 373.901L297.901 365.476L310.753 357.051L317.537 346.701L310.753 336.354L297.901 327.928L310.753 319.503L319.178 306.65L327.603 319.503L340.455 327.927L353.306 319.503L361.732 306.65L370.158 319.503ZM412.713 319.503L425.564 327.928L412.713 336.354L405.927 346.701L412.713 357.051L425.564 365.476L412.713 373.901L405.927 384.25L412.713 394.599L425.564 403.024L412.713 411.449L404.287 424.302L395.861 411.449L383.01 403.024L395.861 394.599L402.645 384.25L395.861 373.901L383.01 365.476L395.861 357.051L402.645 346.701L395.861 336.354L383.01 327.928L395.861 319.503L404.287 306.65L412.713 319.503ZM455.266 319.503L468.119 327.928L455.266 336.354L448.482 346.701L455.266 357.051L468.119 365.476L455.266 373.901L448.482 384.25L455.266 394.599L468.119 403.024L455.266 411.449L446.842 424.302L438.416 411.449L425.564 403.024L438.416 394.599L445.2 384.25L438.416 373.901L425.564 365.476L438.416 357.051L445.2 346.701L438.416 336.354L425.564 327.928L438.416 319.503L446.842 306.65L455.266 319.503ZM540.375 319.503L553.227 327.928L540.375 336.354L533.591 346.701L540.375 357.051L553.227 365.476L540.375 373.901L533.591 384.25L540.375 394.599L553.227 403.024L540.375 411.449L531.95 424.302L523.524 411.449L510.673 403.024L497.821 411.449L489.396 424.302L480.97 411.449L468.119 403.024L480.97 394.599L487.755 384.25L480.97 373.901L468.119 365.476L480.97 357.051L487.755 346.701L480.97 336.354L468.119 327.928L480.97 319.503L489.396 306.65L497.821 319.503L510.673 327.927L523.524 319.503L531.95 306.65L540.375 319.503ZM582.929 319.503L595.782 327.928L582.929 336.354L576.145 346.701L582.929 357.051L595.782 365.476L582.929 373.901L576.145 384.25L582.929 394.599L595.782 403.024L582.929 411.449L574.505 424.302L566.079 411.449L553.227 403.024L566.079 394.599L572.863 384.25L566.079 373.901L553.227 365.476L566.079 357.051L572.863 346.701L566.079 336.354L553.227 327.928L566.079 319.503L574.505 306.65L582.929 319.503ZM625.485 319.503L638.337 327.928L625.485 336.354L618.7 346.701L625.485 357.051L638.337 365.476L625.485 373.901L618.7 384.25L625.485 394.599L638.337 403.024L625.485 411.449L617.059 424.302L608.634 411.449L595.782 403.024L608.634 394.599L615.418 384.25L608.634 373.901L595.782 365.476L608.634 357.051L615.418 346.701L608.634 336.354L595.782 327.928L608.634 319.503L617.059 306.65L625.485 319.503ZM668.04 319.503L680.891 327.928L668.04 336.354L661.255 346.701L668.04 357.051L680.891 365.476L668.04 373.901L661.255 384.25L668.04 394.599L680.891 403.024L668.04 411.449L659.614 424.302L651.188 411.449L638.337 403.024L651.188 394.599L657.972 384.25L651.188 373.901L638.337 365.476L651.188 357.051L657.972 346.701L651.188 336.354L638.337 327.928L651.188 319.503L659.614 306.65L668.04 319.503ZM753.147 319.503L766 327.928L753.147 336.354L746.363 346.701L753.147 357.051L766 365.476L753.147 373.901L746.363 384.25L753.147 394.599L766 403.024L753.147 411.449L744.722 424.302L736.297 411.449L723.445 403.024L710.594 411.449L702.169 424.302L693.743 411.449L680.891 403.024L693.743 394.599L700.527 384.25L693.743 373.901L680.891 365.476L693.743 357.051L700.527 346.701L693.743 336.354L680.891 327.928L693.743 319.503L702.169 306.65L710.594 319.503L723.445 327.927L736.297 319.503L744.722 306.65L753.147 319.503ZM710.594 373.901L703.809 384.25L710.594 394.599L723.445 403.023L736.297 394.599L743.081 384.25L736.297 373.901L723.445 365.476L710.594 373.901ZM114.831 373.901L108.047 384.25L114.831 394.599L127.682 403.023L140.534 394.599L147.318 384.25L140.534 373.901L127.682 365.476L114.831 373.901ZM327.603 373.901L320.819 384.25L327.603 394.599L340.455 403.023L353.306 394.599L360.091 384.25L353.306 373.901L340.455 365.476L327.603 373.901ZM497.821 373.901L491.037 384.25L497.821 394.599L510.673 403.023L523.524 394.599L530.308 384.25L523.524 373.901L510.673 365.476L497.821 373.901ZM710.594 336.354L703.809 346.701L710.594 357.051L723.445 365.475L736.297 357.051L743.081 346.701L736.297 336.354L723.445 327.928L710.594 336.354ZM114.831 336.354L108.047 346.701L114.831 357.051L127.682 365.475L140.534 357.051L147.318 346.701L140.534 336.354L127.682 327.928L114.831 336.354ZM327.603 336.354L320.819 346.701L327.603 357.051L340.455 365.475L353.306 357.051L360.091 346.701L353.306 336.354L340.455 327.928L327.603 336.354ZM497.821 336.354L491.037 346.701L497.821 357.051L510.673 365.475L523.524 357.051L530.308 346.701L523.524 336.354L510.673 327.928L497.821 336.354ZM29.7214 201.852L42.574 210.277L29.7214 218.702L22.9373 229.051L29.7214 239.4L42.574 247.825L29.7214 256.251L22.9373 266.599L29.7214 276.948L42.574 285.373L29.7214 293.799L21.2966 306.65L12.8708 293.799L0.0192871 285.373L12.8708 276.948L19.655 266.599L12.8708 256.251L0.0192871 247.825L12.8708 239.4L19.655 229.051L12.8708 218.702L0.0192871 210.277L12.8708 201.852L21.2966 189L29.7214 201.852ZM72.2761 201.852L85.1287 210.277L72.2761 218.702L65.4919 229.051L72.2761 239.4L85.1287 247.825L72.2761 256.251L65.4919 266.599L72.2761 276.948L85.1287 285.373L72.2761 293.799L63.8513 306.65L55.4255 293.799L42.574 285.373L55.4255 276.948L62.2097 266.599L55.4255 256.251L42.574 247.825L55.4255 239.4L62.2097 229.051L55.4255 218.702L42.574 210.277L55.4255 201.852L63.8513 189L72.2761 201.852ZM157.385 201.852L170.237 210.277L157.385 218.702L150.6 229.051L157.385 239.4L170.237 247.825L157.385 256.251L150.6 266.599L157.385 276.948L170.237 285.373L157.385 293.799L148.96 306.65L140.534 293.799L127.682 285.373L114.831 293.799L106.406 306.65L97.9802 293.799L85.1287 285.373L97.9802 276.948L104.764 266.599L97.9802 256.251L85.1287 247.825L97.9802 239.4L104.764 229.051L97.9802 218.702L85.1287 210.277L97.9802 201.852L106.406 189L114.831 201.852L127.682 210.276L140.534 201.852L148.96 189L157.385 201.852ZM199.939 201.852L212.792 210.277L199.939 218.702L193.155 229.051L199.939 239.4L212.792 247.825L199.939 256.251L193.155 266.599L199.939 276.948L212.792 285.373L199.939 293.799L191.514 306.65L183.089 293.799L170.237 285.373L183.089 276.948L189.873 266.599L183.089 256.251L170.237 247.825L183.089 239.4L189.873 229.051L183.089 218.702L170.237 210.277L183.089 201.852L191.514 189L199.939 201.852ZM242.494 201.852L255.346 210.277L242.494 218.702L235.71 229.051L242.494 239.4L255.346 247.825L242.494 256.251L235.71 266.599L242.494 276.948L255.346 285.373L242.494 293.799L234.069 306.65L225.643 293.799L212.792 285.373L225.643 276.948L232.427 266.599L225.643 256.251L212.792 247.825L225.643 239.4L232.427 229.051L225.643 218.702L212.792 210.277L225.643 201.852L234.069 189L242.494 201.852ZM285.049 201.852L297.901 210.277L285.049 218.702L278.264 229.051L285.049 239.4L297.901 247.825L285.049 256.251L278.264 266.599L285.049 276.948L297.901 285.373L285.049 293.799L276.624 306.65L268.198 293.799L255.346 285.373L268.198 276.948L274.982 266.599L268.198 256.251L255.346 247.825L268.198 239.4L274.982 229.051L268.198 218.702L255.346 210.277L268.198 201.852L276.624 189L285.049 201.852ZM370.157 201.852L383.01 210.277L370.157 218.702L363.373 229.051L370.158 239.4L383.01 247.825L370.158 256.251L363.373 266.599L370.158 276.948L383.01 285.373L370.158 293.799L361.732 306.65L353.306 293.799L340.455 285.373L327.603 293.799L319.178 306.65L310.753 293.799L297.901 285.373L310.753 276.948L317.537 266.599L310.753 256.251L297.901 247.825L310.753 239.4L317.537 229.051L310.753 218.702L297.901 210.277L310.753 201.852L319.178 189L327.603 201.852L340.455 210.276L353.306 201.852L361.732 189L370.157 201.852ZM412.712 201.852L425.564 210.277L412.712 218.702L405.927 229.051L412.713 239.4L425.564 247.825L412.713 256.251L405.927 266.599L412.713 276.948L425.564 285.373L412.713 293.799L404.287 306.65L395.861 293.799L383.01 285.373L395.861 276.948L402.645 266.599L395.861 256.251L383.01 247.825L395.861 239.4L402.645 229.051L395.861 218.702L383.01 210.277L395.861 201.852L404.287 189L412.712 201.852ZM455.266 201.852L468.119 210.277L455.266 218.702L448.482 229.051L455.266 239.4L468.119 247.825L455.266 256.251L448.482 266.599L455.266 276.948L468.119 285.373L455.266 293.799L446.842 306.65L438.416 293.799L425.564 285.373L438.416 276.948L445.2 266.599L438.416 256.251L425.564 247.825L438.416 239.4L445.2 229.051L438.416 218.702L425.564 210.277L438.416 201.852L446.842 189L455.266 201.852ZM540.375 201.852L553.227 210.277L540.375 218.702L533.591 229.051L540.375 239.4L553.227 247.825L540.375 256.251L533.591 266.599L540.375 276.948L553.227 285.373L540.375 293.799L531.95 306.65L523.524 293.799L510.673 285.373L497.821 293.799L489.396 306.65L480.97 293.799L468.119 285.373L480.97 276.948L487.755 266.599L480.97 256.251L468.119 247.825L480.97 239.4L487.755 229.051L480.97 218.702L468.119 210.277L480.97 201.852L489.396 189L497.821 201.852L510.673 210.276L523.524 201.852L531.95 189L540.375 201.852ZM582.929 201.852L595.782 210.277L582.929 218.702L576.145 229.051L582.929 239.4L595.782 247.825L582.929 256.251L576.145 266.599L582.929 276.948L595.782 285.373L582.929 293.799L574.505 306.65L566.079 293.799L553.227 285.373L566.079 276.948L572.863 266.599L566.079 256.251L553.227 247.825L566.079 239.4L572.863 229.051L566.079 218.702L553.227 210.277L566.079 201.852L574.505 189L582.929 201.852ZM625.484 201.852L638.337 210.277L625.484 218.702L618.7 229.051L625.485 239.4L638.337 247.825L625.485 256.251L618.7 266.599L625.485 276.948L638.337 285.373L625.485 293.799L617.059 306.65L608.634 293.799L595.782 285.373L608.634 276.948L615.418 266.599L608.634 256.251L595.782 247.825L608.634 239.4L615.418 229.051L608.634 218.702L595.782 210.277L608.634 201.852L617.059 189L625.484 201.852ZM668.039 201.852L680.891 210.277L668.039 218.702L661.255 229.051L668.04 239.4L680.891 247.825L668.04 256.251L661.255 266.599L668.04 276.948L680.891 285.373L668.04 293.799L659.614 306.65L651.188 293.799L638.337 285.373L651.188 276.948L657.972 266.599L651.188 256.251L638.337 247.825L651.188 239.4L657.972 229.051L651.188 218.702L638.337 210.277L651.188 201.852L659.614 189L668.039 201.852ZM753.147 201.852L766 210.277L753.147 218.702L746.363 229.051L753.147 239.4L766 247.825L753.147 256.251L746.363 266.599L753.147 276.948L766 285.373L753.147 293.799L744.722 306.65L736.297 293.799L723.445 285.373L710.594 293.799L702.169 306.65L693.743 293.799L680.891 285.373L693.743 276.948L700.527 266.599L693.743 256.251L680.891 247.825L693.743 239.4L700.527 229.051L693.743 218.702L680.891 210.277L693.743 201.852L702.169 189L710.594 201.852L723.445 210.276L736.297 201.852L744.722 189L753.147 201.852ZM710.594 256.251L703.809 266.599L710.594 276.948L723.445 285.372L736.297 276.948L743.081 266.599L736.297 256.251L723.445 247.825L710.594 256.251ZM114.831 256.251L108.047 266.599L114.831 276.948L127.682 285.372L140.534 276.948L147.318 266.599L140.534 256.251L127.682 247.825L114.831 256.251ZM327.603 256.251L320.819 266.599L327.603 276.948L340.455 285.372L353.306 276.948L360.091 266.599L353.306 256.251L340.455 247.825L327.603 256.251ZM497.821 256.251L491.037 266.599L497.821 276.948L510.673 285.372L523.524 276.948L530.308 266.599L523.524 256.251L510.673 247.825L497.821 256.251ZM710.594 218.702L703.809 229.051L710.594 239.4L723.445 247.824L736.297 239.4L743.081 229.051L736.297 218.702L723.445 210.277L710.594 218.702ZM114.831 218.702L108.047 229.051L114.831 239.4L127.682 247.824L140.534 239.4L147.318 229.051L140.534 218.702L127.682 210.277L114.831 218.702ZM327.603 218.702L320.819 229.051L327.603 239.4L340.455 247.824L353.306 239.4L360.091 229.051L353.306 218.702L340.455 210.277L327.603 218.702ZM497.821 218.702L491.037 229.051L497.821 239.4L510.673 247.824L523.524 239.4L530.308 229.051L523.524 218.702L510.673 210.277L497.821 218.702Z" fill="#76833B"/>
<g opacity="0.5">
<path d="M59.2358 19.3791C65.2783 14.3337 74.4603 16.3747 77.7963 23.5049L82.5053 33.5699C83.8475 36.4387 86.2695 38.6605 89.2431 39.751L99.6759 43.5768C107.067 46.287 109.89 55.2594 105.383 61.7135L99.021 70.8242C97.2076 73.421 96.4945 76.6293 97.0369 79.7498L98.9401 90.6977C100.288 98.4534 93.9297 105.385 86.0868 104.709L75.0157 103.754C71.8601 103.482 68.725 104.469 66.2939 106.499L57.7642 113.621C51.7217 118.666 42.5397 116.625 39.2038 109.495L34.4947 99.4301C33.1525 96.5613 30.7306 94.3395 27.757 93.2491L17.3242 89.4233C9.93347 86.713 7.1101 77.7407 11.617 71.2866L17.9791 62.1759C19.7924 59.5791 20.5056 56.3707 19.9631 53.2503L18.06 42.3023C16.7118 34.5467 23.0704 27.6154 30.9133 28.2914L41.9844 29.2458C45.1399 29.5178 48.275 28.5312 50.7062 26.5012L59.2358 19.3791Z" fill="#9F5E1C"/>
<path d="M57.3506 35.8254C62.2969 30.3142 71.367 32.3304 73.5127 39.4181L73.6951 40.0199C75.2289 45.0867 79.4023 48.9149 84.5823 50.007L85.1967 50.1366C92.4429 51.6646 95.2318 60.5281 90.1663 65.9302L89.7363 66.3888C86.1154 70.2503 84.8865 75.7783 86.5305 80.8102L86.7258 81.4078C89.0256 88.4472 82.7443 95.2944 75.5332 93.6087L74.9218 93.4658C69.7669 92.2605 64.3647 93.9602 60.8288 97.9L60.4087 98.3679C55.4624 103.879 46.3923 101.863 44.2466 94.7752L44.0642 94.1734C42.5305 89.1066 38.357 85.2783 33.177 84.1862L32.5626 84.0567C25.3164 82.5287 22.5275 73.6652 27.593 68.2631L28.0231 67.8045C31.6439 63.943 32.8728 58.4149 31.2288 53.383L31.0335 52.7854C28.7337 45.7461 35.015 38.8988 42.2261 40.5846L42.8376 40.7275C47.9924 41.9328 53.3946 40.2331 56.9305 36.2932L57.3506 35.8254Z" fill="#9F5E1C" stroke="#FBDFAF" stroke-width="5"/>
<circle cx="58.5001" cy="66.5" r="11.5" transform="rotate(12.5326 58.5001 66.5)" fill="#FBDFAF"/>
</g>
<path d="M555 117.15C557.112 115.039 557.519 113.951 558.778 110.043C559.522 107.732 560.513 105.98 561.371 104.714C562.276 103.378 563.38 101.478 564.198 100.35C565.408 98.6817 567.331 103.437 567.78 105.011C568.421 107.261 569.449 109.101 569.892 110.396C570.323 111.658 570.607 112.579 570.645 113.091C570.828 115.565 565.981 112.381 564.313 111.293C561.259 109.303 559.572 108.426 558.514 107.95C557.556 107.518 556.71 106.723 555.655 106.247C555.125 106.008 554.669 105.637 555.843 105.463C562.967 104.408 564.668 104.815 566.445 104.167C567.875 103.645 569.171 103.653 570.163 103.314C570.399 103.233 570.672 103.244 570.778 103.481C571.724 105.604 567.548 107.944 566.795 108.763C565.944 109.689 564.754 110.262 563.796 111.148C562.775 111.831 560.873 112.917 558.825 114.485C558.278 114.896 557.671 115.301 556.84 116.127" stroke="#CFAE8D" stroke-width="4.40383" stroke-linecap="round"/>
<path d="M231 61.1497C233.112 59.0394 233.519 57.9515 234.778 54.0426C235.522 51.7324 236.513 49.9804 237.371 48.7136C238.276 47.3775 239.38 45.4775 240.198 44.3498C241.408 42.6817 243.331 47.4365 243.78 49.0111C244.421 51.2611 245.449 53.1009 245.892 54.3964C246.323 55.6582 246.607 56.5793 246.645 57.0906C246.828 59.5655 241.981 56.381 240.313 55.2931C237.259 53.3026 235.572 52.4261 234.514 51.9497C233.556 51.518 232.71 50.7227 231.655 50.2473C231.125 50.0079 230.669 49.6369 231.843 49.463C238.967 48.408 240.668 48.8148 242.445 48.1666C243.875 47.645 245.171 47.6533 246.163 47.3138C246.399 47.2332 246.672 47.2443 246.778 47.4805C247.724 49.604 243.548 51.9435 242.795 52.7625C241.944 53.6889 240.754 54.2625 239.796 55.1479C238.775 55.8309 236.873 56.9167 234.825 58.4852C234.278 58.8962 233.671 59.3011 232.84 60.1273" stroke="#CFAE8D" stroke-width="4.40383" stroke-linecap="round"/>
<path d="M700 164.15C702.112 162.039 702.519 160.951 703.778 157.043C704.522 154.732 705.513 152.98 706.371 151.714C707.276 150.378 708.38 148.478 709.198 147.35C710.408 145.682 712.331 150.437 712.78 152.011C713.421 154.261 714.449 156.101 714.892 157.396C715.323 158.658 715.607 159.579 715.645 160.091C715.828 162.565 710.981 159.381 709.313 158.293C706.259 156.303 704.572 155.426 703.514 154.95C702.556 154.518 701.71 153.723 700.655 153.247C700.125 153.008 699.669 152.637 700.843 152.463C707.967 151.408 709.668 151.815 711.445 151.167C712.875 150.645 714.171 150.653 715.163 150.314C715.399 150.233 715.672 150.244 715.778 150.481C716.724 152.604 712.548 154.944 711.795 155.763C710.944 156.689 709.754 157.262 708.796 158.148C707.775 158.831 705.873 159.917 703.825 161.485C703.278 161.896 702.671 162.301 701.84 163.127" stroke="#CFAE8D" stroke-width="4.40383" stroke-linecap="round"/>
<path d="M120 150.15C122.112 148.039 122.519 146.951 123.778 143.043C124.522 140.732 125.513 138.98 126.371 137.714C127.276 136.378 128.38 134.478 129.198 133.35C130.408 131.682 132.331 136.437 132.78 138.011C133.421 140.261 134.449 142.101 134.892 143.396C135.323 144.658 135.607 145.579 135.645 146.091C135.828 148.565 130.981 145.381 129.313 144.293C126.259 142.303 124.572 141.426 123.514 140.95C122.556 140.518 121.71 139.723 120.655 139.247C120.125 139.008 119.669 138.637 120.843 138.463C127.967 137.408 129.668 137.815 131.445 137.167C132.875 136.645 134.171 136.653 135.163 136.314C135.399 136.233 135.672 136.244 135.778 136.481C136.724 138.604 132.548 140.944 131.795 141.763C130.944 142.689 129.754 143.262 128.796 144.148C127.775 144.831 125.873 145.917 123.825 147.485C123.278 147.896 122.671 148.301 121.84 149.127" stroke="#CFAE8D" stroke-width="4.40383" stroke-linecap="round"/>
</g>
<defs>
<clipPath id="clip0_3153_118">
<rect width="750" height="250" fill="white"/>
</clipPath>
</defs>
</svg>
