<svg width="95" height="89" viewBox="0 0 95 89" fill="none" xmlns="http://www.w3.org/2000/svg">
<path d="M13.27 28.0012L8.38532 59.602C10.362 63.2786 17.4117 66.031 26.4969 67.6115C14.3006 54.5022 16.5021 46.7992 20.3908 33.193L20.4596 32.9521C17.8477 31.6939 15.4726 30.0702 13.27 28.0012Z" fill="#FFEBC7"/>
<path fill-rule="evenodd" clip-rule="evenodd" d="M20.3908 33.193L20.4596 32.9521C29.969 37.5329 42.6181 37.2683 61.5167 36.0072L60.0372 41.9254L66.7452 49.9751L68.0868 48.0811L68.0868 53.6646C65.3522 60.3344 62.7479 63.8293 52.9937 68.9021C43.9598 69.4804 34.4487 68.9948 26.4969 67.6115C14.3006 54.5022 16.5021 46.7992 20.3908 33.193Z" fill="#FFD893"/>
<path fill-rule="evenodd" clip-rule="evenodd" d="M78.1463 24.9326L83.1363 59.0922C78.2962 64.9609 66.1512 68.0598 52.9937 68.9021C62.7479 63.8293 65.3522 60.3344 68.0868 53.6646L68.0868 48.0811L72.4471 41.9254L69.093 31.1925L62.7204 31.1925L61.5167 36.0072C42.6181 37.2683 29.969 37.5329 20.4596 32.9521C17.8477 31.6939 15.4726 30.0702 13.27 28.0012L78.1463 24.9326Z" fill="#F4BA55"/>
<path d="M60.0372 41.9254L66.7452 49.9751L68.0868 48.0811L68.0868 35.5528C65.816 35.7131 63.6274 35.8664 61.5167 36.0072L60.0372 41.9254Z" fill="#FFEFD1"/>
<path d="M72.4471 41.9254L69.093 31.1925L62.7204 31.1925L61.5167 36.0072C63.6274 35.8664 65.816 35.7131 68.0868 35.5528L68.0868 48.0811L72.4471 41.9254Z" fill="#FFEFD1"/>
<path d="M19.3075 0.263982C9.8095 2.9261 10.7593 20.2299 10.7593 20.2299C10.7593 20.2299 22.571 16.5319 39.2532 15.9606C39.2532 15.9606 28.8055 -2.39813 19.3075 0.263982Z" fill="#864A07"/>
<path fill-rule="evenodd" clip-rule="evenodd" d="M15.3129 23.5926C22.4449 28.3035 29.782 30.1472 45.5852 29.851C60.3546 29.9166 66.9879 28.0837 77.4551 24.1977C72.051 21.8607 59.8147 20.2299 45.5852 20.2299C32.619 20.2299 21.3078 21.584 15.3129 23.5926Z" fill="#864A07"/>
<path d="M45.5852 33.5404C64.819 33.5404 80.4111 30.5608 80.4111 26.8851C80.4111 25.9288 79.3556 25.0196 77.4551 24.1977C66.9879 28.0837 60.3546 29.9166 45.5852 29.851C29.782 30.1472 22.4449 28.3035 15.3129 23.5926C12.415 24.5635 10.7593 25.6874 10.7593 26.8851C10.7593 30.5608 26.3514 33.5404 45.5852 33.5404Z" fill="#5F370B"/>
<path d="M71.5464 1.59513C61.0986 -1.06698 54.7666 16.3161 54.7666 16.3161C64.2429 17.004 71.8912 18.3609 76.2948 19.2818C76.5594 19.3371 76.8123 19.3908 77.0532 19.4428L76.1365 16.6431C76.1365 16.6431 71.5464 14.4225 69.093 10.733C66.6397 7.04359 71.5464 1.59513 71.5464 1.59513Z" fill="#864A07"/>
<path d="M80.4111 20.2299C80.4111 20.2299 81.9941 4.25724 71.5464 1.59513C71.5464 1.59513 66.6397 7.04359 69.093 10.733C71.5464 14.4225 76.1365 16.6431 76.1365 16.6431L80.4111 20.2299Z" fill="#5D380E"/>
<path d="M80.4111 26.8851V20.2299C80.4111 20.2299 79.2175 19.9095 77.0532 19.4428L78.4843 23.8137C78.1369 23.9439 77.794 24.0719 77.4551 24.1977C79.3556 25.0196 80.4111 25.9288 80.4111 26.8851Z" fill="#633809"/>
<path d="M80.4111 20.2299L76.1365 16.6431L77.0532 19.4428C79.2175 19.9095 80.4111 20.2299 80.4111 20.2299Z" fill="#552D00"/>
<path fill-rule="evenodd" clip-rule="evenodd" d="M15.3129 23.5926C21.3078 21.584 32.619 20.2299 45.5852 20.2299C59.8147 20.2299 72.051 21.8607 77.4551 24.1977C77.794 24.0719 78.1369 23.9439 78.4843 23.8137L77.0532 19.4428C76.8123 19.3908 76.5594 19.3371 76.2948 19.2818C71.8912 18.3609 64.2429 17.004 54.7666 16.3161C51.8641 16.1054 48.79 15.9574 45.5852 15.9039C43.4101 15.8676 41.2952 15.8907 39.2532 15.9606C22.571 16.5319 10.7593 20.2299 10.7593 20.2299C12.3194 21.4823 13.8116 22.601 15.3129 23.5926Z" fill="#864A07"/>
<path d="M10.7593 20.2299V26.8851C10.7593 25.6874 12.415 24.5635 15.3129 23.5926C13.8116 22.601 12.3194 21.4823 10.7593 20.2299Z" fill="#5D3509"/>
<path opacity="0.3" d="M18.8169 17.979C18.4736 17.1562 18.4045 16.1973 19.2582 12.257C19.7682 9.90348 21.2214 8.97556 21.5297 8.75233C22.5092 8.04311 24.5168 8.73222 25.2592 9.1957C25.7415 9.4968 25.8613 10.1407 26.1366 10.8269C26.5468 11.8493 26.9584 12.7163 27.7673 13.9701C28.4078 14.963 29.3629 15.8096 29.9681 16.3622C30.4696 16.8201 31.6993 17.3562 32.3226 17.7717C32.4262 17.8408 32.5283 17.9089 32.4958 17.9609C32.1719 18.4802 31.2271 18.2883 29.9588 18.4595C28.9752 18.5922 28.1338 18.5286 27.143 18.5801C25.2699 18.6776 23.9394 18.4956 23.6821 18.1538C23.2892 17.6318 23.3197 16.984 23.1661 16.7943C22.6418 16.1468 22.0834 18.113 21.5174 18.7332C21.2256 18.8719 20.9492 18.975 20.675 19.0611C20.5368 19.0792 20.4007 19.0451 19.9511 18.907" stroke="#9F5E1C" stroke-width="8.72048" stroke-linecap="round"/>
<path opacity="0.3" d="M48.5122 23.7839C50.6344 23.9385 52.1803 23.8874 52.9891 23.7073C53.8184 23.5226 54.4717 23.5009 55.0039 23.3336C55.6774 23.1218 57.0434 22.8578 58.0808 22.6251C58.8377 22.4553 59.4663 22.162 60.1754 21.7372C61.1443 21.1569 61.659 20.8989 62.1265 20.5387C62.5983 20.175 62.9159 19.7656 63.1909 19.238C63.4546 18.7324 63.4979 18.1948 63.6744 17.8199C63.8659 17.413 63.9156 16.9317 64.0935 16.4547C64.178 16.2281 64.3352 16.0543 64.4957 15.9256C64.6683 15.7872 65.0748 15.8216 65.5089 15.8599C65.9334 15.8973 66.204 16.1045 66.365 16.2456C66.8021 16.6287 66.5917 18.1809 66.4153 19.1437C66.3227 19.6489 65.8531 20.1475 65.3532 20.7922C64.7097 21.6223 63.9504 21.7724 63.1146 22.1334C62.8231 22.2625 62.533 22.3151 62.1951 22.3406C62.0486 22.3661 61.9529 22.4171 61.8543 22.4697" stroke="#9F5E1C" stroke-width="8.72048" stroke-linecap="round"/>
<path d="M48.9688 5.36658L33.5403 15.7641L57.6893 13.0808L48.9688 5.36658Z" fill="#FFF07A"/>
<path d="M57.6893 13.0808L33.5403 15.7641L36.5589 20.1243L53.9999 18.1119L57.6893 13.0808Z" fill="#FFF4A4"/>
<circle cx="45.6148" cy="50.9813" r="4.69564" fill="#8E500D"/>
<ellipse cx="45.2794" cy="50.9813" rx="1.67702" ry="2.68322" fill="#5D380E"/>
<rect x="19.4534" y="61.7142" width="13.4161" height="10.7329" rx="4.69564" fill="#8E500D"/>
<rect x="19.4534" y="65.0682" width="13.4161" height="4.69564" rx="2.34782" fill="#5D380E"/>
<rect x="57.6893" y="61.7142" width="13.4161" height="10.7329" rx="4.69564" fill="#8E500D"/>
<rect x="57.6893" y="65.0682" width="13.4161" height="4.69564" rx="2.34782" fill="#5D380E"/>
</svg>
